<svg width="28" height="38" viewBox="0 0 28 38" fill="none" xmlns="http://www.w3.org/2000/svg">
<path d="M11.883 1.59137C13.4065 4.79139 11.883 12.4689 23.149 10.0715C18.3235 12.9666 2.10754 18.6039 4.85071 25.0549C0.837929 22.2097 -1.29542 13.3215 4.85071 10.0715C10.9968 6.82148 9.74965 5.90804 11.883 1.59137ZM18.0591 17.5191C18.9739 18.2809 18.7175 19.6705 16.889 20.6362C15.0606 21.602 6.78112 23.2265 6.78112 30.1853C6.78112 34.401 9.82818 36.5344 9.82818 36.5344C7.35852 27.2312 27.3827 26.4542 26.6453 22.1809C26.6453 16.3537 18.0591 17.5191 18.0591 17.5191Z" stroke="#1C274C" stroke-width="2" stroke-linecap="round" stroke-linejoin="round"/>
<path d="M18.0592 17.5192C15.9258 17.8241 11.4708 21.5001 6.79317 19.4616M4.46228 24.5118C5.23924 25.6773 7.57014 26.8427 7.57014 26.8427" stroke="#1C274C" stroke-width="2" stroke-linecap="round" stroke-linejoin="round"/>
</svg>
