<svg width="89" height="89" viewBox="0 0 89 89" fill="none" xmlns="http://www.w3.org/2000/svg">
<g clip-path="url(#clip0_4_6)">
<rect width="89" height="89" rx="12" fill="white"/>
<path d="M41.7878 12C44.5579 17.8184 41.7878 31.7778 62.2719 27.4188C53.498 32.6827 24.0138 42.9326 29.0015 54.662C21.7053 49.4889 17.8264 33.328 29.0015 27.4188C40.1765 21.5095 37.9089 19.8487 41.7878 12ZM53.0174 40.9603C54.6806 42.3454 54.2144 44.872 50.8899 46.6279C47.5654 48.3838 32.5114 51.3375 32.5114 63.9903C32.5114 71.6555 38.0517 75.5344 38.0517 75.5344C33.5612 58.619 69.9698 57.2063 68.6291 49.4365C68.6291 38.8413 53.0174 40.9603 53.0174 40.9603Z" fill="#5F6FFF" stroke="#5F6FFF" stroke-linecap="round" stroke-linejoin="round"/>
<path d="M53.0174 40.9603C49.1384 41.5147 41.0383 48.1986 32.5332 44.4921M28.2951 53.6746C29.7078 55.7937 33.9459 57.9127 33.9459 57.9127" stroke="#5F6FFF" stroke-linecap="round" stroke-linejoin="round"/>
</g>
<defs>
<clipPath id="clip0_4_6">
<rect width="89" height="89" rx="12" fill="white"/>
</clipPath>
</defs>
</svg>
